<svg xmlns="http://www.w3.org/2000/svg" version="1.1" xmlns:xlink="http://www.w3.org/1999/xlink" xmlns:svgjs="http://svgjs.dev/svgjs" width="1500" height="935" viewBox="0 0 1500 935"><g transform="matrix(1,0,0,1,-0.9084522071641459,-0.2748850942249419)"><svg viewBox="0 0 396 247" data-background-color="#ffffff" preserveAspectRatio="xMidYMid meet" height="935" width="1500" xmlns="http://www.w3.org/2000/svg" xmlns:xlink="http://www.w3.org/1999/xlink"><g id="tight-bounds" transform="matrix(1,0,0,1,0.24008861730862918,0.07267853405937785)"><svg viewBox="0 0 395.52 246.8547047619047" height="246.8547047619047" width="395.52"><g><svg viewBox="0 0 395.52 246.8547047619047" height="246.8547047619047" width="395.52"><g><svg viewBox="0 0 395.52 246.8547047619047" height="246.8547047619047" width="395.52"><g id="textblocktransform"><svg viewBox="0 0 395.52 246.8547047619047" height="246.8547047619047" width="395.52" id="textblock"><g><svg viewBox="0 0 395.52 246.8547047619047" height="246.8547047619047" width="395.52"><path d="M394.594 52.946C392.735 27.322 387.435 20.199 387.435 20.199 371.165-6.193 350.86-0.505 332.619 3.287 300.414 3.441 268.339 9.078 236.208 12.102 168.767 12.563 100.749 4.979 33.643 23.684 27.339 29.423-6.54 24.811 1.121 56.225 3.129 69.293 10.456 83.796 10.232 95.788 11.236 97.889 12.631 93.072 13.226 96.095 15.309 104.244 18.711 100.4 21.501 105.217 17.614 118.08 20.403 128.791 23.062 140.014 18.377 142.935 12.371 141.551 9.675 151.237 9.396 158.258 7.89 156.925 6.235 156.618 5.026 156.413 2.59 157.182 2.999 159.385 4.394 166.919-1.594 171.275 2.162 178.654-0.422 186.649 3.948 193.567 3.353 202.228 3.278 203.97 3.687 205.456 4.338 205.866 7.22 208.07 3.018 212.375 3.464 217.038 33.029 248.914 65.104 226.877 95.394 241.534 103.259 231.285 97.346 245.173 100.489 243.02 102.943 240.509 104.728 250.912 107.499 245.019 107.927 243.328 107.276 239.33 108.8 240.099 109.6 240.509 110.307 240.407 110.418 238.049 110.586 234.513 109.117 236.717 108.726 234.872 112.947 225.545 111.906 247.735 115.866 246.812 115.68 244.096 114.528 240.202 116.889 240.714 119.232 236.819 119.306 233.591 121.389 242.354 121.463 244.25 121.835 245.583 122.43 246.505 128.938 236.973 135.409 249.887 142.233 245.583 146.417 240.868 150.433 248.145 154.672 246.351 156.16 244.916 157.666 242.354 159.098 246.659 176.632 247.581 195.319 243.738 211.943 246.812 256.364 241.073 303.836 249.17 350.674 241.585 361.719 238.664 373.192 234.513 383.958 231.182 383.958 231.182 392.679 222.06 392.679 181.063S394.538 145.19 394.817 112.546C395.096 79.901 396.398 78.569 394.538 52.946Z" opacity="1" fill="#45bb49" data-fill-palette-color="tertiary"></path><g transform="matrix(1,0,0,1,55.76832,26.230666666666668)"><svg width="283.98335999999995" viewBox="-10.8 -32 50.400000000000006 34.5" height="194.39337142857138" data-palette-color="#ffffff"><path d="M10.35-9.35L10.35-9.35Q10.35-11.8 11.05-15.83 11.75-19.85 12.9-22.78 14.05-25.7 16-27.85L16-27.85Q19.75-32 27.85-32L27.85-32Q34.15-32 36.88-29.48 39.6-26.95 39.6-21.95 39.6-16.95 38.15-12.38 36.7-7.8 34.65-5.35L34.65-5.35 37.75-3.25 34.25 2.5 25.45 0.75 25.8-1.15 21.55 0Q15.5 0 12.93-2.43 10.35-4.85 10.35-9.35ZM19.8-7.8L23.75-7.8Q25.7-7.8 26.65-8.28 27.6-8.75 27.9-10.45L27.9-10.45 30.2-23.45 26.2-23.45Q24.3-23.45 23.35-22.98 22.4-22.5 22.1-20.8L22.1-20.8 19.8-7.8ZM-10.25-16.85L9.75-16.85 9.4-14.75-10.25-16.85ZM-10.8-12.05L9.05-12.05Q8.9-10.9 8.9-9.95L8.9-9.95-10.8-12.05ZM-9.05-21.65L10.95-21.65 10.35-19.6-9.05-21.65ZM-10.15-7.25L8.95-7.25Q9.05-6.4 9.35-5.15L9.35-5.15-10.15-7.25ZM-6.7-26.45L13-26.45Q12.3-25.15 12-24.45L12-24.45-6.7-26.45ZM-5.35-2.4L10.75-2.4Q11.45-1.65 12.75-0.55L12.75-0.55-5.35-2.4ZM0.2-31.25L17.75-31.25Q16.3-30.35 15.5-29.6L15.5-29.6 0.2-31.25Z" opacity="1" transform="matrix(1,0,0,1,0,0)" fill="#ffffff" class="wordmark-text-0" data-fill-palette-color="quaternary" id="text-0"></path></svg></g></svg></g></svg></g></svg></g><g></g></svg></g><defs></defs></svg><rect width="395.52" height="246.8547047619047" fill="none" stroke="none" visibility="hidden"></rect></g></svg></g></svg>